<svg xmlns="http://www.w3.org/2000/svg" width="220" height="40" fill="none" viewBox="0 0 220 40"><path fill="#FFC700" d="M0 16h220v8H0z"/><path fill="#000" d="M40.18 27V14.22h10.638V27h-2.952V16.812h-4.734V27H40.18Zm22.345.108c-.96 0-1.83-.18-2.61-.54a6.604 6.604 0 0 1-1.998-1.476 6.94 6.94 0 0 1-1.278-2.088c-.3-.78-.45-1.584-.45-2.412 0-.852.156-1.662.468-2.43a6.869 6.869 0 0 1 1.332-2.052 6.202 6.202 0 0 1 4.59-1.962c.948 0 1.806.186 2.574.558.78.36 1.446.852 1.998 1.476a6.706 6.706 0 0 1 1.296 2.106c.3.768.45 1.554.45 2.358 0 .852-.156 1.662-.468 2.43a6.649 6.649 0 0 1-1.332 2.07 6.657 6.657 0 0 1-2.034 1.44c-.768.348-1.614.522-2.538.522Zm-3.33-6.48c0 .492.072.972.216 1.44.144.456.354.864.63 1.224.288.36.642.648 1.062.864.42.216.9.324 1.44.324.564 0 1.056-.108 1.476-.324.42-.228.768-.528 1.044-.9s.48-.786.612-1.242a4.81 4.81 0 0 0 0-2.844 3.745 3.745 0 0 0-.648-1.224 2.965 2.965 0 0 0-1.062-.864 3.213 3.213 0 0 0-1.422-.306c-.564 0-1.056.108-1.476.324-.408.216-.756.51-1.044.882a3.91 3.91 0 0 0-.63 1.242 5.024 5.024 0 0 0-.198 1.404Zm14.288 8.82v-5.04h.72c.312 0 .582-.12.81-.36.24-.252.444-.636.612-1.152.168-.528.3-1.2.396-2.016.096-.828.162-1.818.198-2.97l.108-3.69h8.856v10.188h1.746v5.04h-2.592V27h-8.28v2.448h-2.574Zm4.176-5.04h4.572v-7.596h-3.222l-.036 1.512a29.911 29.911 0 0 1-.18 2.844c-.084.792-.216 1.458-.396 1.998-.18.528-.426.942-.738 1.242ZM92.305 27V14.22h5.454c.612 0 1.17.126 1.674.378.516.24.96.57 1.332.99.372.408.66.87.864 1.386.204.516.306 1.044.306 1.584 0 .732-.174 1.428-.522 2.088-.336.66-.81 1.2-1.422 1.62-.6.408-1.314.612-2.142.612h-2.592V27h-2.952Zm2.952-6.696h2.412c.228 0 .438-.066.63-.198a1.4 1.4 0 0 0 .468-.594c.12-.264.18-.588.18-.972 0-.396-.072-.72-.216-.972a1.294 1.294 0 0 0-.522-.576c-.204-.12-.42-.18-.648-.18h-2.304v3.492Zm17.461 6.804c-.96 0-1.83-.18-2.61-.54a6.604 6.604 0 0 1-1.998-1.476 6.94 6.94 0 0 1-1.278-2.088c-.3-.78-.45-1.584-.45-2.412 0-.852.156-1.662.468-2.43a6.869 6.869 0 0 1 1.332-2.052 6.202 6.202 0 0 1 4.59-1.962c.948 0 1.806.186 2.574.558.78.36 1.446.852 1.998 1.476a6.706 6.706 0 0 1 1.296 2.106c.3.768.45 1.554.45 2.358 0 .852-.156 1.662-.468 2.43a6.649 6.649 0 0 1-1.332 2.07 6.657 6.657 0 0 1-2.034 1.44c-.768.348-1.614.522-2.538.522Zm-3.33-6.48c0 .492.072.972.216 1.44.144.456.354.864.63 1.224.288.36.642.648 1.062.864.42.216.9.324 1.44.324.564 0 1.056-.108 1.476-.324.42-.228.768-.528 1.044-.9s.48-.786.612-1.242a4.81 4.81 0 0 0 0-2.844 3.745 3.745 0 0 0-.648-1.224 2.965 2.965 0 0 0-1.062-.864 3.213 3.213 0 0 0-1.422-.306c-.564 0-1.056.108-1.476.324-.408.216-.756.51-1.044.882a3.91 3.91 0 0 0-.63 1.242 5.024 5.024 0 0 0-.198 1.404ZM124.449 27V14.22h9.468v2.538h-6.516v2.556h3.15c1.452 0 2.544.342 3.276 1.026.744.672 1.116 1.584 1.116 2.736 0 .792-.162 1.482-.486 2.07a3.224 3.224 0 0 1-1.404 1.368c-.624.324-1.404.486-2.34.486h-6.264Zm2.952-2.538h2.898c.396 0 .708-.072.936-.216.24-.144.408-.324.504-.54.108-.228.162-.468.162-.72 0-.24-.048-.468-.144-.684-.084-.216-.246-.384-.486-.504-.24-.132-.576-.198-1.008-.198h-2.862v2.862Zm23.721-10.242V27h-2.952v-5.238h-5.094V27h-2.952V14.22h2.952v4.95h5.094v-4.95h2.952Zm15.031 10.188V27h-8.982V14.22h8.82v2.592h-5.868v2.484h5.04v2.394h-5.04v2.718h6.03Zm14.376 0V27h-8.982V14.22h8.82v2.592h-5.868v2.484h5.04v2.394h-5.04v2.718h6.03Z"/></svg>